<svg xmlns="http://www.w3.org/2000/svg" viewBox="0 0 45.7813 47.5"><defs><style>.cls-1{fill:#ff4747;}.cls-2{fill:#47bdff;}.cls-3{fill:#0b0b0b;}</style></defs><g id="Layer_2" data-name="Layer 2"><g id="Layer_1-2" data-name="Layer 1"><path class="cls-1" d="M0,46.5V1H14A21.2648,21.2648,0,0,1,24.7344,3.7031a18.8566,18.8566,0,0,1,7.3906,7.6875,23.7164,23.7164,0,0,1,2.6563,11.3282v2.0937a23.78,23.78,0,0,1-2.6094,11.2813A18.695,18.695,0,0,1,24.8125,43.75,21.4188,21.4188,0,0,1,14.0938,46.5ZM9.375,8.5938v30.375h4.5313q5.5,0,8.4062-3.5938t2.9688-10.2812V22.6875q0-6.9375-2.875-10.5156T14,8.5938Z"/><path class="cls-2" d="M10,46.5V1H24A21.2648,21.2648,0,0,1,34.7344,3.7031a18.8566,18.8566,0,0,1,7.3906,7.6875,23.7164,23.7164,0,0,1,2.6563,11.3282v2.0937a23.78,23.78,0,0,1-2.6094,11.2813A18.695,18.695,0,0,1,34.8125,43.75,21.4177,21.4177,0,0,1,24.0938,46.5ZM19.375,8.5938v30.375h4.5313q5.5,0,8.4062-3.5938t2.9688-10.2812V22.6875q0-6.9375-2.875-10.5156T24,8.5938Z"/><path class="cls-3" d="M24,1A21.2648,21.2648,0,0,1,34.7344,3.7031a18.8566,18.8566,0,0,1,7.3906,7.6875,23.7167,23.7167,0,0,1,2.6563,11.3282v2.0937a23.78,23.78,0,0,1-2.6094,11.2813A18.695,18.695,0,0,1,34.8125,43.75,21.4177,21.4177,0,0,1,24.0938,46.5H10V1H24M19.375,38.9688h4.5313q5.5,0,8.4062-3.5938t2.9688-10.2812V22.6875q0-6.9375-2.875-10.5156T24,8.5938H19.375v30.375M24,0H9V47.5H24.0938a22.5083,22.5083,0,0,0,11.2154-2.8821,19.7635,19.7635,0,0,0,7.7468-8.0568,24.8745,24.8745,0,0,0,2.7253-11.7486V22.7188A24.8118,24.8118,0,0,0,43.0076,10.92,19.9275,19.9275,0,0,0,35.23,2.8347,22.3463,22.3463,0,0,0,24,0ZM20.375,9.5938H24c3.399,0,5.8938,1.0482,7.6268,3.2045,1.7613,2.1931,2.6545,5.52,2.6545,9.8892v2.4063c-.04,4.1975-.9636,7.4482-2.7463,9.6523-1.7532,2.1686-4.2486,3.2227-7.6287,3.2227H20.375V9.5938Z"/></g></g></svg>